<?xml version="1.0" standalone="no"?>
<!DOCTYPE svg PUBLIC "-//W3C//DTD SVG 20010904//EN"
 "http://www.w3.org/TR/2001/REC-SVG-20010904/DTD/svg10.dtd">
<svg version="1.0" xmlns="http://www.w3.org/2000/svg"
 width="484.000000pt" height="484.000000pt" viewBox="0 0 484.000000 484.000000"
 preserveAspectRatio="xMidYMid meet">
<metadata>
Created by potrace 1.11, written by Peter Selinger 2001-2013
</metadata>
<g transform="translate(0.000000,484.000000) scale(0.100000,-0.100000)"
fill="#000000" stroke="none">
<path d="M1607 4814 c-67 -21 -127 -83 -149 -154 -14 -47 -89 -406 -102 -495
-3 -16 -12 -70 -20 -120 -16 -98 -51 -365 -61 -460 -3 -33 -8 -80 -10 -105
-33 -313 -39 -931 -11 -1165 2 -16 7 -61 11 -100 4 -38 9 -85 11 -102 2 -18 6
-50 9 -70 10 -82 27 -184 52 -303 14 -69 26 -132 28 -140 26 -131 130 -461
201 -633 67 -163 181 -389 210 -415 l26 -22 614 2 615 3 19 25 c34 44 167 321
223 465 63 162 131 379 172 545 17 70 17 73 41 200 9 47 18 94 20 105 4 19 11
71 20 135 3 19 7 46 9 60 2 14 7 52 11 85 3 33 8 74 10 90 4 33 13 160 19 275
5 93 5 542 0 630 -7 132 -16 256 -21 305 -23 227 -50 442 -80 620 -20 116 -38
224 -41 240 -13 82 -74 349 -86 377 -29 68 -106 123 -190 134 -87 12 -189 -37
-238 -116 -9 -14 -44 -79 -79 -145 -35 -66 -74 -140 -87 -164 -75 -137 -271
-600 -319 -753 -10 -32 -21 -58 -24 -58 -4 0 -27 57 -53 128 -132 366 -408
943 -495 1035 -62 66 -165 90 -255 61z m132 -161 c23 -20 144 -238 223 -403
133 -278 249 -568 336 -845 l29 -90 -24 -85 c-49 -181 -99 -415 -129 -604 -3
-21 -7 -46 -9 -56 -2 -10 -8 -62 -15 -116 -6 -55 -13 -112 -15 -129 -27 -195
-27 -821 0 -975 2 -14 7 -50 10 -80 12 -119 35 -269 60 -380 8 -36 16 -78 19
-95 3 -16 10 -46 16 -65 5 -19 10 -36 10 -37 0 -2 -85 -3 -190 -3 l-190 0 -56
112 c-70 140 -149 334 -202 498 -37 114 -114 412 -126 485 -3 17 -12 73 -21
125 -9 52 -19 111 -21 130 -3 19 -7 46 -9 60 -3 14 -7 57 -11 95 -3 39 -8 77
-9 87 -25 132 -25 963 -1 1118 3 14 7 57 11 95 9 99 15 155 20 195 2 19 7 55
10 80 4 25 8 56 10 70 2 14 9 61 15 105 16 110 20 138 25 155 2 8 7 35 10 60
4 25 25 133 47 240 22 107 41 200 42 205 10 56 91 84 135 48z m1445 -5 c23
-21 31 -49 75 -273 27 -137 52 -268 56 -290 3 -22 10 -67 15 -100 5 -33 12
-77 15 -97 3 -21 7 -54 10 -74 3 -19 8 -56 11 -82 3 -26 7 -58 9 -72 5 -34 13
-111 21 -195 33 -368 37 -842 9 -1140 -11 -119 -22 -214 -29 -260 -3 -16 -8
-52 -11 -80 -4 -27 -13 -81 -20 -120 -8 -38 -17 -86 -20 -105 -3 -19 -22 -98
-41 -175 -75 -304 -157 -529 -287 -792 l-50 -103 -189 0 -190 0 6 27 c4 16 8
37 10 48 2 11 9 38 14 60 6 22 13 54 15 70 3 17 8 41 11 55 8 34 14 72 27 157
5 39 12 81 14 92 2 11 7 51 10 88 4 37 8 79 10 92 23 144 23 786 0 910 -1 9
-6 48 -9 86 -4 39 -9 81 -11 95 -2 14 -7 45 -10 70 -7 52 -12 84 -25 160 -5
30 -12 69 -14 85 -13 73 -78 358 -101 438 l-26 88 37 117 c108 347 304 801
481 1115 59 107 78 127 119 127 20 0 43 -9 58 -22z m-765 -1695 c6 -21 13 -51
15 -68 3 -16 8 -41 11 -55 30 -153 31 -160 46 -255 18 -125 20 -139 25 -190 3
-27 7 -61 9 -74 11 -64 20 -280 20 -486 0 -287 -10 -428 -50 -700 -17 -115
-75 -387 -85 -398 -4 -4 -15 29 -25 75 -10 46 -20 88 -21 93 -9 38 -54 310
-59 355 -3 30 -8 66 -10 80 -28 160 -28 783 0 1015 2 17 6 55 10 85 6 55 10
77 19 135 3 17 10 60 16 97 6 38 19 112 31 165 11 54 22 113 26 131 3 17 7 32
9 32 2 0 8 -17 13 -37z"/>
<path d="M639 1412 c-39 -10 -60 -28 -69 -60 -11 -41 7 -94 38 -111 12 -6 77
-11 152 -11 l131 0 51 -107 c55 -119 77 -166 166 -358 33 -71 79 -170 102
-220 23 -49 73 -155 110 -235 119 -257 120 -258 148 -268 18 -7 347 -10 947
-10 760 0 924 2 942 14 22 14 34 36 186 364 52 113 120 258 151 324 31 65 56
119 56 121 0 1 26 58 58 126 33 68 72 152 87 187 l28 62 128 0 c73 0 139 5
152 11 50 23 62 100 23 145 l-23 28 -164 1 c-90 1 -176 -3 -191 -8 -28 -9 -39
-29 -118 -202 -15 -33 -47 -100 -70 -150 -23 -49 -57 -121 -75 -160 -83 -178
-101 -217 -151 -323 -30 -63 -54 -115 -54 -117 0 -2 -25 -55 -55 -119 l-55
-116 -862 0 -863 0 -50 108 c-27 59 -72 157 -101 217 -28 61 -63 135 -77 165
-53 117 -101 219 -144 310 -25 52 -72 154 -105 225 -32 72 -68 139 -78 150
-18 17 -35 19 -179 20 -87 0 -165 -1 -172 -3z"/>
</g>
</svg>
