<!-- Generator: Adobe Illustrator 21.1.0, SVG Export Plug-In  -->
<svg version="1.1"
	 xmlns="http://www.w3.org/2000/svg" xmlns:xlink="http://www.w3.org/1999/xlink" xmlns:a="http://ns.adobe.com/AdobeSVGViewerExtensions/3.0/"
	 x="0px" y="0px" width="488px" height="466px" viewBox="0 0 488 466" style="enable-background:new 0 0 488 466;"
	 xml:space="preserve">
<style type="text/css">
	.st0{fill:#DCBE9A;}
</style>
<defs>
</defs>
<g>
	<g>
		<path class="st0" d="M468.3,205.9H19.7C8.8,205.9,0,218,0,233c0,15,8.8,27.1,19.7,27.1h448.6c10.9,0,19.7-12.1,19.7-27.1
			C488,218,479.2,205.9,468.3,205.9z"/>
	</g>
</g>
<g>
	<g>
		<path class="st0" d="M468.3,0H19.7C8.8,0,0,12.2,0,27.1s8.8,27.1,19.7,27.1h448.6c10.9,0,19.7-12.2,19.7-27.1S479.2,0,468.3,0z"/>
	</g>
</g>
<g>
	<g>
		<path class="st0" d="M468.3,411.7H19.7C8.8,411.7,0,423.9,0,438.9c0,15,8.8,27.1,19.7,27.1h448.6c10.9,0,19.7-12.1,19.7-27.1
			C488,423.9,479.2,411.7,468.3,411.7z"/>
	</g>
</g>
</svg>